<?xml version="1.0" standalone="no"?>
<!DOCTYPE svg PUBLIC "-//W3C//DTD SVG 20010904//EN"
 "http://www.w3.org/TR/2001/REC-SVG-20010904/DTD/svg10.dtd">
<svg version="1.0" xmlns="http://www.w3.org/2000/svg"
 width="700.000000pt" height="700.000000pt" viewBox="0 0 700.000000 700.000000"
 preserveAspectRatio="xMidYMid meet">
<metadata>
Created by potrace 1.14, written by Peter Selinger 2001-2017
</metadata>
<g transform="translate(0.000000,700.000000) scale(0.100000,-0.100000)"
fill="#000000" stroke="none">
<path d="M1239 6119 c-77 -11 -158 -57 -230 -128 -73 -73 -114 -148 -126 -232
-5 -30 -8 -340 -8 -689 l0 -635 218 -1 c149 0 217 3 218 10 0 6 1 288 1 627
l1 617 606 0 c333 0 615 1 626 1 21 1 21 6 20 218 l0 218 -641 0 c-352 0 -661
-3 -685 -6z"/>
<path d="M4438 6125 c0 0 -2 -98 -3 -217 l-2 -218 31 -1 c17 0 299 -1 628 -1
l596 0 1 -597 c0 -328 0 -610 0 -627 l1 -30 215 0 c141 0 216 4 218 10 7 23 0
1283 -7 1326 -25 140 -149 280 -294 333 -55 20 -77 20 -719 21 -365 1 -664 1
-665 1z"/>
<path d="M3498 4546 c-1 -2 -43 -6 -93 -9 -136 -9 -213 -26 -325 -69 -252 -99
-460 -311 -553 -563 -52 -141 -66 -224 -67 -400 -1 -123 6 -186 31 -292 42
-174 119 -316 236 -439 176 -183 343 -266 628 -309 43 -6 200 -7 275 -1 342
28 648 232 799 532 33 66 69 157 76 192 2 13 6 31 9 40 3 9 8 36 11 59 3 23 8
57 11 75 6 40 6 245 0 273 -2 11 -7 43 -10 70 -13 94 -60 238 -108 325 -57
105 -175 240 -278 317 -146 108 -334 176 -523 189 -51 3 -97 7 -104 9 -6 2
-13 2 -15 1z"/>
<path d="M876 1901 c1 -646 1 -668 21 -723 53 -145 199 -274 336 -295 23 -4
332 -7 687 -7 l645 -1 1 218 c1 192 -1 217 -15 217 -9 1 -291 1 -627 2 l-612
2 0 585 c0 322 -1 605 -1 627 l-1 41 -218 0 -218 -1 2 -665z"/>
<path d="M5690 2541 c-1 -14 -1 -297 -2 -628 l-2 -602 -605 0 c-333 0 -615 0
-627 0 -20 -1 -21 -5 -20 -218 l1 -218 640 0 c352 -1 662 3 689 8 145 25 281
143 338 293 22 59 22 62 23 714 1 360 0 660 -2 666 -3 7 -75 11 -218 11 l-215
0 0 -26z"/>
</g>
</svg>
